<?xml version="1.0" encoding="UTF-8" standalone="no"?>
<!-- Created with Inkscape (http://www.inkscape.org/) -->

<svg
   width="210mm"
   height="297mm"
   viewBox="0 0 210 297"
   version="1.1"
   id="svg5"
   inkscape:version="1.2.2 (732a01da63, 2022-12-09)"
   sodipodi:docname="Menu.svg"
   xmlns:inkscape="http://www.inkscape.org/namespaces/inkscape"
   xmlns:sodipodi="http://sodipodi.sourceforge.net/DTD/sodipodi-0.dtd"
   xmlns="http://www.w3.org/2000/svg"
   xmlns:svg="http://www.w3.org/2000/svg">
  <sodipodi:namedview
     id="namedview7"
     pagecolor="#ffffff"
     bordercolor="#000000"
     borderopacity="0.25"
     inkscape:showpageshadow="2"
     inkscape:pageopacity="0.0"
     inkscape:pagecheckerboard="0"
     inkscape:deskcolor="#d1d1d1"
     inkscape:document-units="mm"
     showgrid="false"
     inkscape:zoom="0.72515427"
     inkscape:cx="597.11432"
     inkscape:cy="475.07133"
     inkscape:window-width="1920"
     inkscape:window-height="1001"
     inkscape:window-x="-9"
     inkscape:window-y="-9"
     inkscape:window-maximized="1"
     inkscape:current-layer="layer1" />
  <defs
     id="defs2" />
  <g
     inkscape:label="Calque 1"
     inkscape:groupmode="layer"
     id="layer1">
    <g
       id="g322">
      <circle
         style="fill:none;stroke:#ff0000;stroke-width:0.1;stroke-dasharray:none;stroke-opacity:1"
         id="path2297"
         cx="86.317566"
         cy="29.507242"
         r="1.47343" />
      <rect
         style="fill:none;stroke:#ff0000;stroke-width:0.127546;stroke-dasharray:none;stroke-opacity:1"
         id="rect201"
         width="159.87245"
         height="64.872452"
         x="2.0637732"
         y="2.0637732" />
      <rect
         style="fill:none;stroke:#ff0000;stroke-width:0.1;stroke-dasharray:none;stroke-opacity:1"
         id="rect791"
         width="69.859436"
         height="24.859436"
         x="4.8878489"
         y="22.070282" />
      <circle
         style="fill:none;stroke:#ff0000;stroke-width:0.1;stroke-dasharray:none;stroke-opacity:1"
         id="path2299"
         cx="86.317566"
         cy="39.507244"
         r="1.4711807" />
      <rect
         style="fill:none;stroke:#ff0000;stroke-width:0.1;stroke-dasharray:none;stroke-opacity:1"
         id="rect2301"
         width="19.914486"
         height="14.914486"
         x="120.05"
         y="27.042755" />
    </g>
    <path
       style="fill:none;stroke:#ff0000;stroke-width:0.102657;stroke-dasharray:none;stroke-opacity:1"
       d="m 178.3123,72.345309 v 4.97834 h -3.1396 v 4.97835 h 3.1396 v 4.97834 h -3.1396 v 4.97834 h 3.1396 v 4.97835 L 3.4149642,97.220429 v -4.97834 h 3.13959 v -4.97835 h -3.13959 v -4.97834 h 3.13959 v -4.97835 h -3.13959 v -4.97834 l 174.8973358,0.0166"
       id="path2418" />
    <path
       style="fill:none;stroke:#ff0000;stroke-width:0.102688;stroke-dasharray:none;stroke-opacity:1"
       d="m 178.31229,102.63719 v 4.98271 h -3.14575 v 4.98269 h 3.14575 v 4.98272 h -3.14575 v 4.9827 h 3.14575 v 4.9827 h -3.14575 v 4.98269 h 3.14575 v 4.98269 h -3.14575 v 4.9827 H 6.5607276 V 137.496 h -3.14575 v -4.9827 h 3.14575 v -4.98269 h -3.14575 v -4.98271 h 3.14575 v -4.9827 h -3.14575 v -4.98271 h 3.14575 v -4.9827 h -3.14575 v -4.9827 l 174.8973124,0.0201"
       id="path3360" />
    <path
       style="fill:none;stroke:#ff0000;stroke-width:0.119009;stroke-dasharray:none;stroke-opacity:1"
       d="m 43.275776,291.82952 h -5.133648 v 4.16457 h -4.935804 v -4.16457 h -4.935813 v 4.16457 h -4.935814 v -4.16457 H 18.19951 v 4.16457 h -4.935813 v -4.16457 H 8.3278826 v 4.16235 H 3.3936287 v -60.71423 l 4.9164847,2e-5 v -4.16457 h 4.9358036 v 4.16457 h 4.935813 v -4.16457 h 4.935814 v 4.16457 l 5.131299,-2e-5 z"
       id="path3545" />
    <path
       style="fill:none;stroke:#ff0000;stroke-width:0.119009;stroke-dasharray:none;stroke-opacity:1"
       d="m 84.206973,291.82952 h -5.13365 v 4.16457 h -4.93581 v -4.16457 h -4.93581 v 4.16457 h -4.9358 v -4.16457 h -5.1352 v 4.16457 h -4.93581 v -4.16457 h -4.93582 v 4.16235 h -4.93425 v -60.71423 l 4.91648,2e-5 v -4.16457 h 4.93581 v 4.16457 h 4.93581 v -4.16457 h 4.93581 v 4.16457 l 5.1313,-2e-5 z"
       id="path3545-4" />
    <rect
       style="fill:none;stroke:#ff0000;stroke-width:0.100043;stroke-dasharray:none;stroke-opacity:1"
       id="rect224"
       width="205.89996"
       height="22.899958"
       x="-207.94998"
       y="-203.77383"
       transform="scale(-1)" />
    <rect
       style="fill:none;stroke:#ff0000;stroke-width:0.100043;stroke-dasharray:none;stroke-opacity:1"
       id="rect224-3"
       width="205.89996"
       height="22.899958"
       x="-207.94998"
       y="-170.7775"
       transform="scale(-1)" />
  </g>
</svg>
