<?xml version="1.0" encoding="UTF-8" standalone="no"?>
<!-- Created with Inkscape (http://www.inkscape.org/) -->

<svg
   width="210mm"
   height="297mm"
   viewBox="0 0 210 297"
   version="1.1"
   id="svg5"
   inkscape:version="1.2.2 (732a01da63, 2022-12-09)"
   sodipodi:docname="pieces_mur.svg"
   xmlns:inkscape="http://www.inkscape.org/namespaces/inkscape"
   xmlns:sodipodi="http://sodipodi.sourceforge.net/DTD/sodipodi-0.dtd"
   xmlns="http://www.w3.org/2000/svg"
   xmlns:svg="http://www.w3.org/2000/svg">
  <sodipodi:namedview
     id="namedview7"
     pagecolor="#ffffff"
     bordercolor="#000000"
     borderopacity="0.25"
     inkscape:showpageshadow="2"
     inkscape:pageopacity="0.0"
     inkscape:pagecheckerboard="0"
     inkscape:deskcolor="#d1d1d1"
     inkscape:document-units="mm"
     showgrid="false"
     inkscape:zoom="0.51276154"
     inkscape:cx="181.37086"
     inkscape:cy="519.73477"
     inkscape:window-width="1920"
     inkscape:window-height="1001"
     inkscape:window-x="-9"
     inkscape:window-y="-9"
     inkscape:window-maximized="1"
     inkscape:current-layer="layer1" />
  <defs
     id="defs2" />
  <g
     inkscape:label="Calque 1"
     inkscape:groupmode="layer"
     id="layer1">
    <path
       id="rect370"
       style="fill:none;stroke:#ff0000;stroke-width:0.1;stroke-dasharray:none;stroke-opacity:1"
       d="M 0.04185791 0.04185791 L 0.04185791 289.95853 L 204.95803 289.95853 L 204.95803 0.04185791 L 0.04185791 0.04185791 z M 3.049943 3.049943 L 12.950114 3.049943 L 12.950114 22.95002 L 3.049943 22.95002 L 3.049943 3.049943 z M 14.049788 3.049943 L 23.950476 3.049943 L 23.950476 22.95002 L 14.049788 22.95002 L 14.049788 3.049943 z M 25.049634 3.049943 L 34.950321 3.049943 L 34.950321 22.95002 L 25.049634 22.95002 L 25.049634 3.049943 z M 36.049996 3.049943 L 45.950167 3.049943 L 45.950167 22.95002 L 36.049996 22.95002 L 36.049996 3.049943 z M 47.049841 3.049943 L 56.950012 3.049943 L 56.950012 22.95002 L 47.049841 22.95002 L 47.049841 3.049943 z M 58.049687 3.049943 L 67.950374 3.049943 L 67.950374 22.95002 L 58.049687 22.95002 L 58.049687 3.049943 z M 70.049988 3.049943 L 79.950159 3.049943 L 79.950159 22.95002 L 70.049988 22.95002 L 70.049988 3.049943 z M 81.049833 3.049943 L 90.950004 3.049943 L 90.950004 22.95002 L 81.049833 22.95002 L 81.049833 3.049943 z M 92.049679 3.049943 L 101.95037 3.049943 L 101.95037 22.95002 L 92.049679 22.95002 L 92.049679 3.049943 z M 103.04952 3.049943 L 112.95021 3.049943 L 112.95021 22.95002 L 103.04952 22.95002 L 103.04952 3.049943 z M 114.04989 3.049943 L 123.95006 3.049943 L 123.95006 22.95002 L 114.04989 22.95002 L 114.04989 3.049943 z M 125.04973 3.049943 L 134.95042 3.049943 L 134.95042 22.95002 L 125.04973 22.95002 L 125.04973 3.049943 z M 3.049943 24.049695 L 12.950114 24.049695 L 12.950114 43.950289 L 3.049943 43.950289 L 3.049943 24.049695 z M 36.049996 24.049695 L 45.950167 24.049695 L 45.950167 43.950289 L 36.049996 43.950289 L 36.049996 24.049695 z M 70.049988 24.049695 L 79.950159 24.049695 L 79.950159 43.950289 L 70.049988 43.950289 L 70.049988 24.049695 z M 103.04952 24.049695 L 112.95021 24.049695 L 112.95021 43.950289 L 103.04952 43.950289 L 103.04952 24.049695 z M 14.049788 24.050212 L 24.017655 24.050212 L 24.017655 44.017985 L 14.049788 44.017985 L 14.049788 24.050212 z M 25.050151 24.050212 L 35.018018 24.050212 L 35.018018 44.017985 L 25.050151 44.017985 L 25.050151 24.050212 z M 47.049841 24.050212 L 57.017708 24.050212 L 57.017708 44.017985 L 47.049841 44.017985 L 47.049841 24.050212 z M 58.050203 24.050212 L 68.017554 24.050212 L 68.017554 44.017985 L 58.050203 44.017985 L 58.050203 24.050212 z M 81.049833 24.050212 L 91.0177 24.050212 L 91.0177 44.017985 L 81.049833 44.017985 L 81.049833 24.050212 z M 92.050195 24.050212 L 102.01755 24.050212 L 102.01755 44.017985 L 92.050195 44.017985 L 92.050195 24.050212 z M 114.04989 24.050212 L 124.01775 24.050212 L 124.01775 44.017985 L 114.04989 44.017985 L 114.04989 24.050212 z M 125.04973 24.050212 L 135.0176 24.050212 L 135.0176 44.017985 L 125.04973 44.017985 L 125.04973 24.050212 z M 3.049943 46.049902 L 12.950114 46.049902 L 12.950114 65.950496 L 3.049943 65.950496 L 3.049943 46.049902 z M 14.049788 46.049902 L 23.950476 46.049902 L 23.950476 65.950496 L 14.049788 65.950496 L 14.049788 46.049902 z M 25.049634 46.049902 L 34.950321 46.049902 L 34.950321 65.950496 L 25.049634 65.950496 L 25.049634 46.049902 z M 36.049996 46.049902 L 45.950167 46.049902 L 45.950167 65.950496 L 36.049996 65.950496 L 36.049996 46.049902 z M 47.049841 46.049902 L 56.950012 46.049902 L 56.950012 65.950496 L 47.049841 65.950496 L 47.049841 46.049902 z M 58.049687 46.049902 L 67.950374 46.049902 L 67.950374 65.950496 L 58.049687 65.950496 L 58.049687 46.049902 z M 3.049943 67.049654 L 12.950114 67.049654 L 12.950114 86.950248 L 3.049943 86.950248 L 3.049943 67.049654 z M 36.049996 67.049654 L 45.950167 67.049654 L 45.950167 86.950248 L 36.049996 86.950248 L 36.049996 67.049654 z M 14.049788 67.050171 L 24.017655 67.050171 L 24.017655 87.017944 L 14.049788 87.017944 L 14.049788 67.050171 z M 25.050151 67.050171 L 35.018018 67.050171 L 35.018018 87.017944 L 25.050151 87.017944 L 25.050151 67.050171 z M 47.049841 67.050171 L 57.017708 67.050171 L 57.017708 87.017944 L 47.049841 87.017944 L 47.049841 67.050171 z M 58.050203 67.050171 L 68.017554 67.050171 L 68.017554 87.017944 L 58.050203 87.017944 L 58.050203 67.050171 z M 3.0220378 95.022107 L 12.978019 95.022107 L 12.978019 134.97781 L 3.0220378 134.97781 L 3.0220378 95.022107 z M 15.021822 95.022107 L 24.977804 95.022107 L 24.977804 134.97781 L 15.021822 134.97781 L 15.021822 95.022107 z M 27.022123 95.022107 L 36.978105 95.022107 L 36.978105 134.97781 L 27.022123 134.97781 L 27.022123 95.022107 z M 40.021847 95.022107 L 49.977828 95.022107 L 49.977828 134.97781 L 40.021847 134.97781 L 40.021847 95.022107 z M 52.022148 95.022107 L 61.978129 95.022107 L 61.978129 134.97781 L 52.022148 134.97781 L 52.022148 95.022107 z M 64.021932 95.022107 L 73.977913 95.022107 L 73.977913 134.97781 L 64.021932 134.97781 L 64.021932 95.022107 z M 76.022233 95.022107 L 85.977698 95.022107 L 85.977698 134.97781 L 76.022233 134.97781 L 76.022233 95.022107 z M 88.022017 95.022107 L 97.977999 95.022107 L 97.977999 134.97781 L 88.022017 134.97781 L 88.022017 95.022107 z M 100.0218 95.022107 L 109.97778 95.022107 L 109.97778 134.97781 L 100.0218 134.97781 L 100.0218 95.022107 z M 113.02204 95.022107 L 122.97802 95.022107 L 122.97802 134.97781 L 113.02204 134.97781 L 113.02204 95.022107 z M 125.02183 95.022107 L 134.97781 95.022107 L 134.97781 134.97781 L 125.02183 134.97781 L 125.02183 95.022107 z M 137.02213 95.022107 L 146.97811 95.022107 L 146.97811 134.97781 L 137.02213 134.97781 L 137.02213 95.022107 z M 3.0220378 140.02194 L 12.978019 140.02194 L 12.978019 179.97816 L 3.0220378 179.97816 L 3.0220378 140.02194 z M 15.021822 140.02194 L 24.977804 140.02194 L 24.977804 179.97816 L 15.021822 179.97816 L 15.021822 140.02194 z M 27.022123 140.02194 L 36.978105 140.02194 L 36.978105 179.97816 L 27.022123 179.97816 L 27.022123 140.02194 z M 40.021847 140.02194 L 49.977828 140.02194 L 49.977828 179.97816 L 40.021847 179.97816 L 40.021847 140.02194 z M 52.022148 140.02194 L 61.978129 140.02194 L 61.978129 179.97816 L 52.022148 179.97816 L 52.022148 140.02194 z M 64.021932 140.02194 L 73.977913 140.02194 L 73.977913 179.97816 L 64.021932 179.97816 L 64.021932 140.02194 z M 3.0359904 182.03592 L 202.96436 182.03592 L 202.96436 201.96442 L 3.0359904 201.96442 L 3.0359904 182.03592 z M 3.0359904 205.03606 L 202.96436 205.03606 L 202.96436 224.96405 L 3.0359904 224.96405 L 3.0359904 205.03606 z M 3.0349569 230.03505 L 186.96482 230.03505 L 186.96482 249.9651 L 3.0349569 249.9651 L 3.0349569 230.03505 z M 3.0349569 254.1974 L 186.96482 254.1974 L 186.96482 274.12694 L 3.0349569 274.12694 L 3.0349569 254.1974 z " />
  </g>
</svg>
