<?xml version="1.0" encoding="UTF-8" standalone="no"?>
<!-- Created with Inkscape (http://www.inkscape.org/) -->

<svg
   width="210mm"
   height="297mm"
   viewBox="0 0 210 297"
   version="1.1"
   id="svg5"
   sodipodi:docname="Plaque_Base.svg"
   inkscape:version="1.2.2 (732a01da63, 2022-12-09)"
   xmlns:inkscape="http://www.inkscape.org/namespaces/inkscape"
   xmlns:sodipodi="http://sodipodi.sourceforge.net/DTD/sodipodi-0.dtd"
   xmlns="http://www.w3.org/2000/svg"
   xmlns:svg="http://www.w3.org/2000/svg">
  <sodipodi:namedview
     id="namedview7"
     pagecolor="#ffffff"
     bordercolor="#000000"
     borderopacity="0.25"
     inkscape:showpageshadow="2"
     inkscape:pageopacity="0.0"
     inkscape:pagecheckerboard="0"
     inkscape:deskcolor="#d1d1d1"
     inkscape:document-units="mm"
     showgrid="false"
     showguides="false"
     inkscape:zoom="0.72515432"
     inkscape:cx="381.98766"
     inkscape:cy="487.48244"
     inkscape:window-width="1920"
     inkscape:window-height="1001"
     inkscape:window-x="-9"
     inkscape:window-y="-9"
     inkscape:window-maximized="1"
     inkscape:current-layer="layer1" />
  <defs
     id="defs2" />
  <g
     inkscape:label="Calque 1"
     inkscape:groupmode="layer"
     id="layer1">
    <path
       id="rect13296"
       style="fill:none;stroke:#ff0000;stroke-width:0.1;stroke-dasharray:none;stroke-opacity:1"
       d="M 0.094567871 0.094567871 L 0.094567871 199.90511 L 180.15438 199.90511 L 180.18228 199.93302 L 180.21019 199.90511 L 199.90511 199.90511 L 199.90511 19.845817 L 199.93302 19.817912 L 199.90511 19.790007 L 199.90511 0.094567871 L 0.094567871 0.094567871 z M 91.00013 5.8787109 A 1.9711233 1.9711233 0 0 1 92.971069 7.8501668 A 1.9711233 1.9711233 0 0 1 91.00013 9.821106 A 1.9711233 1.9711233 0 0 1 89.028674 7.8501668 A 1.9711233 1.9711233 0 0 1 91.00013 5.8787109 z M 113.70004 5.8890462 A 1.9612081 1.9612081 0 0 1 115.66116 7.8501668 A 1.9612081 1.9612081 0 0 1 113.70004 9.8112874 A 1.9612081 1.9612081 0 0 1 111.73892 7.8501668 A 1.9612081 1.9612081 0 0 1 113.70004 5.8890462 z M 39.851831 20.134172 L 160.16852 20.134172 L 120.23245 60.064551 L 79.776526 60.064551 L 39.851831 20.134172 z M 20.134172 39.86165 L 60.064551 79.797713 L 60.064551 120.22367 L 20.134172 160.14836 L 20.134172 39.86165 z M 179.86551 39.88232 L 179.86551 160.16852 L 139.93513 120.23245 L 139.93513 79.807015 L 179.86551 39.88232 z M 7.8501668 89.03901 A 1.9612081 1.9612081 0 0 1 9.8112874 91.00013 A 1.9612081 1.9612081 0 0 1 7.8501668 92.961251 A 1.9612081 1.9612081 0 0 1 5.8890462 91.00013 A 1.9612081 1.9612081 0 0 1 7.8501668 89.03901 z M 82.749988 98.01779 A 1.9815872 1.9815872 0 0 1 84.731779 99.999581 A 1.9815872 1.9815872 0 0 1 82.749988 101.98137 A 1.9815872 1.9815872 0 0 1 80.768197 99.999581 A 1.9815872 1.9815872 0 0 1 82.749988 98.01779 z M 117.25021 98.018306 A 1.981524 1.9815239 0 0 1 119.23148 99.999581 A 1.981524 1.9815239 0 0 1 117.25021 101.98086 A 1.981524 1.9815239 0 0 1 115.26842 99.999581 A 1.981524 1.9815239 0 0 1 117.25021 98.018306 z M 7.8501668 111.7291 A 1.9711233 1.9711233 0 0 1 9.821106 113.70004 A 1.9711233 1.9711233 0 0 1 7.8501668 115.67098 A 1.9711233 1.9711233 0 0 1 5.8787109 113.70004 A 1.9711233 1.9711233 0 0 1 7.8501668 111.7291 z M 79.797713 139.93513 L 120.19318 139.93513 L 160.11788 179.86551 L 39.86165 179.86551 L 79.797713 139.93513 z " />
  </g>
</svg>
